<svg width="243" height="118" viewBox="0 0 243 118" fill="none" xmlns="http://www.w3.org/2000/svg">
<path fill-rule="evenodd" clip-rule="evenodd" d="M113.468 0.375062C115.205 1.24394 115.904 3.34475 115.027 5.06735C111.272 12.4476 105.689 23.3487 100.707 32.9259C101.018 32.6332 101.33 32.3402 101.642 32.0471C106.375 27.6081 111.309 23.1165 115.311 19.7641C117.303 18.0961 119.131 16.6537 120.62 15.6335C121.356 15.1296 122.102 14.6646 122.8 14.3265C123.148 14.1577 123.569 13.9786 124.03 13.8528C124.44 13.741 125.191 13.5826 126.068 13.7498C126.992 13.9259 127.954 14.4482 128.598 15.4154C129.169 16.2742 129.262 17.1463 129.263 17.6738C129.264 18.6644 128.932 19.5806 128.698 20.1514C128.173 21.4333 127.259 23.0074 126.218 24.6359C124.091 27.9647 120.956 32.2568 117.796 36.4226C116.795 37.7424 115.785 39.0573 114.797 40.3341C116.122 39.9073 117.46 39.5679 118.751 39.3809C121.221 39.0229 124.718 39.062 127.055 41.678C127.729 42.4328 128.234 43.3763 128.624 44.2346C129.038 45.1444 129.432 46.2108 129.811 47.3792C130.571 49.7177 131.34 52.6838 132.113 56.0716C133.661 62.8581 135.283 71.6042 136.904 80.9703C137.955 87.0379 139.764 93.549 142.037 98.9413C143.174 101.637 144.395 103.979 145.648 105.823C146.926 107.703 148.099 108.86 149.06 109.437C152.953 111.773 159.29 111.57 166.857 108.419C174.245 105.342 181.937 99.7792 187.797 92.9784C189.061 91.5115 191.285 91.3381 192.765 92.5913C194.245 93.8445 194.419 96.0496 193.155 97.5165C186.621 105.1 178.044 111.338 169.586 114.86C161.307 118.308 152.222 119.501 145.41 115.413C143.22 114.099 141.364 112.024 139.803 109.727C138.217 107.393 136.79 104.612 135.535 101.636C133.026 95.6836 131.084 88.6536 129.958 82.1521C128.34 72.8045 126.744 64.2099 125.239 57.6127C124.485 54.3087 123.769 51.5722 123.103 49.5203C122.77 48.4935 122.466 47.6928 122.199 47.1039C121.989 46.6431 121.924 46.4388 121.797 46.3391C121.605 46.1885 121.196 46.0875 119.77 46.2942C118.039 46.545 115.849 47.2882 113.539 48.3045C111.272 49.3018 109.08 50.4756 107.395 51.45C105.964 52.2775 105.074 52.8592 104.794 53.0424C104.721 53.0902 104.689 53.1109 104.7 53.1017C104.651 53.1424 104.567 53.2098 104.458 53.2855C104.376 53.3422 104.143 53.5012 103.813 53.641C103.638 53.7099 103.193 53.839 102.921 53.8879C102.506 53.9216 101.498 53.7989 100.933 53.5932C98.8352 52.6205 98.8843 50.5323 98.9102 50.1757C98.9488 49.6435 99.1049 49.249 99.1449 49.1478L99.1459 49.1454C99.2088 48.9865 99.2707 48.8642 99.3047 48.7995C99.3741 48.6673 99.4386 48.5647 99.4678 48.5189C99.5754 48.3503 99.7041 48.1778 99.7745 48.084C99.9553 47.8427 100.228 47.4921 100.559 47.0717C101.004 46.5047 101.598 45.7564 102.297 44.8743C102.646 44.4342 103.022 43.9609 103.418 43.4601C105.814 40.4353 109.035 36.3477 112.163 32.2233C112.448 31.8487 112.731 31.4745 113.012 31.1013C110.884 33.0267 108.672 35.0718 106.485 37.1226C101.79 41.5256 97.2505 45.9184 93.9736 49.1392C92.3343 50.7504 91.0183 52.0613 90.1611 52.9291C89.864 53.2299 89.6316 53.4678 89.4636 53.6423C89.3492 53.7934 89.0887 54.1175 88.7291 54.4028C88.6905 54.4334 88.5848 54.5167 88.4459 54.6078C88.3845 54.6481 88.2286 54.7486 88.0161 54.8496C87.905 54.9001 87.6257 55.0074 87.4555 55.0601C87.1835 55.1254 86.4448 55.1935 85.9826 55.1574C85.257 54.9732 83.894 54.0639 83.3719 53.3302C83.1078 52.6857 82.9664 51.5795 83.0068 51.1581C83.1063 50.5279 83.3646 50.076 83.4081 49.9999C83.4099 49.9968 83.4113 49.9944 83.4123 49.9925C83.5479 49.7514 83.6876 49.5734 83.7174 49.5354L83.7204 49.5316C83.7971 49.4335 83.8835 49.3341 83.9584 49.251C84.0974 49.033 84.296 48.7036 84.5573 48.2524C85.1 47.3152 85.8397 45.9804 86.7379 44.3227C88.5306 41.0142 90.9061 36.5098 93.5036 31.5282C98.6961 21.5696 104.747 9.75895 108.735 1.92088C109.611 0.198276 111.73 -0.493812 113.468 0.375062ZM100.188 47.7346C100.211 47.7155 100.245 47.6882 100.287 47.6557C100.251 47.684 100.217 47.7103 100.188 47.7346Z" fill="#4ABEFF"/>
<path d="M0.328003 30.808C0.328003 29.368 0.776003 28.2 1.672 27.304C2.6 26.376 3.784 25.912 5.224 25.912H11.56V31.672H7.672C6.808 31.672 6.376 32.152 6.376 33.112V67.288C6.376 68.248 6.808 68.728 7.672 68.728H11.56V74.488H5.224C3.784 74.488 2.6 74.024 1.672 73.096C0.776003 72.2 0.328003 71.032 0.328003 69.592V30.808Z" fill="white"/>
<path d="M242.173 69.592C242.173 71.032 241.709 72.2 240.781 73.096C239.885 74.024 238.717 74.488 237.277 74.488H230.941V68.728H234.829C235.693 68.728 236.125 68.248 236.125 67.288V33.112C236.125 32.152 235.693 31.672 234.829 31.672H230.941V25.912H237.277C238.717 25.912 239.885 26.376 240.781 27.304C241.709 28.2 242.173 29.368 242.173 30.808V69.592Z" fill="white"/>
</svg>