<svg width="33" height="25" viewBox="0 0 33 25" fill="none" xmlns="http://www.w3.org/2000/svg">
<path d="M0 2.448C0 1.728 0.224 1.144 0.672 0.696001C1.136 0.232 1.728 0 2.448 0H5.616V2.88H3.672C3.24 2.88 3.024 3.12 3.024 3.6V20.688C3.024 21.168 3.24 21.408 3.672 21.408H5.616V24.288H2.448C1.728 24.288 1.136 24.056 0.672 23.592C0.224 23.144 0 22.56 0 21.84V2.448Z" fill="#4ABEFF"/>
<path d="M22.5673 20.544H17.3353L16.6633 11.52V10.08H16.0873V11.52L15.4153 20.544H10.1833L9.39131 8.64H12.1753L12.7033 17.664V19.104H13.2793V17.664L13.8793 8.64H18.8713L19.4713 17.664V19.104H20.0473V17.664L20.5753 8.64H23.3593L22.5673 20.544Z" fill="#4ABEFF"/>
<path d="M32.7506 21.84C32.7506 22.56 32.5186 23.144 32.0546 23.592C31.6066 24.056 31.0226 24.288 30.3026 24.288H27.1346V21.408H29.0786C29.5106 21.408 29.7266 21.168 29.7266 20.688V3.6C29.7266 3.12 29.5106 2.88 29.0786 2.88H27.1346V0H30.3026C31.0226 0 31.6066 0.232 32.0546 0.696001C32.5186 1.144 32.7506 1.728 32.7506 2.448V21.84Z" fill="#4ABEFF"/>
</svg>